<svg width="1920" height="1080" viewBox="0 0 1920 1080" fill="none" xmlns="http://www.w3.org/2000/svg">
<g clip-path="url(#clip0_2_2)">
<rect width="1920" height="1080" fill="white"/>
<rect x="766.5" y="300.5" width="388" height="47" rx="9.5" fill="white" stroke="#868686"/>
<path d="M779.761 316.455H781.494V327.903H781.636L789.591 316.455H791.295V331H789.534V319.58H789.392L781.466 331H779.761V316.455ZM800.559 328.727L804.365 320.091H805.956L801.24 331H799.877L795.246 320.091H796.809L800.559 328.727ZM796.269 320.091V331H794.593V320.091H796.269ZM804.848 331V320.091H806.525V331H804.848ZM816.155 331V321.625H813.257C812.604 321.625 812.09 321.777 811.716 322.08C811.342 322.383 811.155 322.799 811.155 323.33C811.155 323.85 811.323 324.26 811.659 324.558C812 324.857 812.467 325.006 813.059 325.006H816.581V326.568H813.059C812.32 326.568 811.683 326.438 811.148 326.178C810.613 325.917 810.201 325.545 809.912 325.062C809.623 324.575 809.479 323.997 809.479 323.33C809.479 322.657 809.631 322.08 809.934 321.597C810.237 321.114 810.67 320.742 811.233 320.482C811.801 320.221 812.476 320.091 813.257 320.091H817.746V331H816.155ZM808.882 331L811.979 325.574H813.797L810.701 331H808.882ZM826.448 331V320.091H835.028V331H833.352V321.653H828.124V331H826.448ZM842.521 331.227C841.536 331.227 840.672 330.993 839.928 330.524C839.19 330.055 838.612 329.4 838.195 328.557C837.783 327.714 837.577 326.729 837.577 325.602C837.577 324.466 837.783 323.474 838.195 322.626C838.612 321.779 839.19 321.121 839.928 320.652C840.672 320.183 841.536 319.949 842.521 319.949C843.505 319.949 844.367 320.183 845.106 320.652C845.849 321.121 846.427 321.779 846.839 322.626C847.255 323.474 847.464 324.466 847.464 325.602C847.464 326.729 847.255 327.714 846.839 328.557C846.427 329.4 845.849 330.055 845.106 330.524C844.367 330.993 843.505 331.227 842.521 331.227ZM842.521 329.722C843.269 329.722 843.884 329.53 844.367 329.146C844.85 328.763 845.208 328.259 845.44 327.634C845.672 327.009 845.788 326.331 845.788 325.602C845.788 324.873 845.672 324.194 845.44 323.564C845.208 322.934 844.85 322.425 844.367 322.037C843.884 321.649 843.269 321.455 842.521 321.455C841.772 321.455 841.157 321.649 840.674 322.037C840.191 322.425 839.834 322.934 839.602 323.564C839.37 324.194 839.254 324.873 839.254 325.602C839.254 326.331 839.37 327.009 839.602 327.634C839.834 328.259 840.191 328.763 840.674 329.146C841.157 329.53 841.772 329.722 842.521 329.722ZM849.056 331V329.438H849.454C849.781 329.438 850.053 329.374 850.271 329.246C850.489 329.113 850.664 328.884 850.797 328.557C850.934 328.225 851.038 327.766 851.109 327.179C851.185 326.587 851.239 325.834 851.272 324.92L851.471 320.091H858.744V331H857.068V321.653H853.062L852.892 325.545C852.854 326.44 852.773 327.229 852.65 327.911C852.532 328.588 852.35 329.156 852.103 329.615C851.862 330.074 851.54 330.42 851.137 330.652C850.735 330.884 850.231 331 849.625 331H849.056ZM863.268 324.04H866.393C867.672 324.04 868.649 324.364 869.326 325.013C870.003 325.661 870.342 326.483 870.342 327.477C870.342 328.131 870.19 328.725 869.887 329.26C869.584 329.79 869.139 330.214 868.552 330.531C867.965 330.844 867.245 331 866.393 331H861.819V320.091H863.495V329.438H866.393C867.056 329.438 867.6 329.262 868.027 328.912C868.453 328.562 868.666 328.112 868.666 327.562C868.666 326.985 868.453 326.514 868.027 326.149C867.6 325.785 867.056 325.602 866.393 325.602H863.268V324.04ZM872.212 328.216H874.001C874.039 328.708 874.262 329.082 874.669 329.338C875.081 329.594 875.616 329.722 876.274 329.722C876.946 329.722 877.522 329.584 878 329.31C878.478 329.03 878.717 328.58 878.717 327.96C878.717 327.596 878.627 327.278 878.447 327.009C878.268 326.734 878.014 326.521 877.688 326.369C877.361 326.218 876.975 326.142 876.53 326.142H874.655V324.636H876.53C877.197 324.636 877.69 324.485 878.007 324.182C878.329 323.879 878.49 323.5 878.49 323.045C878.49 322.558 878.317 322.167 877.972 321.874C877.626 321.575 877.136 321.426 876.501 321.426C875.862 321.426 875.33 321.571 874.903 321.859C874.477 322.143 874.252 322.51 874.229 322.96H872.467C872.486 322.373 872.666 321.855 873.007 321.405C873.348 320.95 873.812 320.595 874.399 320.339C874.986 320.079 875.659 319.949 876.416 319.949C877.183 319.949 877.848 320.084 878.412 320.354C878.98 320.619 879.418 320.981 879.726 321.44C880.038 321.895 880.195 322.411 880.195 322.989C880.195 323.604 880.022 324.101 879.676 324.48C879.33 324.859 878.897 325.129 878.376 325.29V325.403C878.788 325.432 879.146 325.564 879.449 325.801C879.757 326.033 879.996 326.339 880.166 326.717C880.337 327.091 880.422 327.506 880.422 327.96C880.422 328.623 880.244 329.201 879.889 329.693C879.534 330.181 879.046 330.56 878.426 330.83C877.806 331.095 877.098 331.227 876.303 331.227C875.531 331.227 874.839 331.102 874.229 330.851C873.618 330.595 873.133 330.242 872.773 329.793C872.418 329.338 872.231 328.812 872.212 328.216ZM887.208 331.227C886.223 331.227 885.359 330.993 884.616 330.524C883.877 330.055 883.299 329.4 882.883 328.557C882.471 327.714 882.265 326.729 882.265 325.602C882.265 324.466 882.471 323.474 882.883 322.626C883.299 321.779 883.877 321.121 884.616 320.652C885.359 320.183 886.223 319.949 887.208 319.949C888.193 319.949 889.055 320.183 889.793 320.652C890.537 321.121 891.114 321.779 891.526 322.626C891.943 323.474 892.151 324.466 892.151 325.602C892.151 326.729 891.943 327.714 891.526 328.557C891.114 329.4 890.537 330.055 889.793 330.524C889.055 330.993 888.193 331.227 887.208 331.227ZM887.208 329.722C887.956 329.722 888.572 329.53 889.055 329.146C889.538 328.763 889.895 328.259 890.127 327.634C890.359 327.009 890.475 326.331 890.475 325.602C890.475 324.873 890.359 324.194 890.127 323.564C889.895 322.934 889.538 322.425 889.055 322.037C888.572 321.649 887.956 321.455 887.208 321.455C886.46 321.455 885.844 321.649 885.362 322.037C884.879 322.425 884.521 322.934 884.289 323.564C884.057 324.194 883.941 324.873 883.941 325.602C883.941 326.331 884.057 327.009 884.289 327.634C884.521 328.259 884.879 328.763 885.362 329.146C885.844 329.53 886.46 329.722 887.208 329.722ZM894.71 331V320.091H899.17C900.344 320.091 901.277 320.356 901.968 320.886C902.66 321.417 903.005 322.117 903.005 322.989C903.005 323.652 902.809 324.165 902.416 324.53C902.023 324.89 901.519 325.134 900.903 325.261C901.306 325.318 901.696 325.46 902.075 325.688C902.458 325.915 902.776 326.227 903.027 326.625C903.278 327.018 903.403 327.501 903.403 328.074C903.403 328.633 903.261 329.132 902.977 329.572C902.693 330.013 902.286 330.361 901.755 330.616C901.225 330.872 900.591 331 899.852 331H894.71ZM896.301 329.466H899.852C900.43 329.466 900.882 329.329 901.208 329.054C901.535 328.779 901.699 328.405 901.699 327.932C901.699 327.368 901.535 326.926 901.208 326.604C900.882 326.277 900.43 326.114 899.852 326.114H896.301V329.466ZM896.301 324.665H899.17C899.62 324.665 900.006 324.603 900.328 324.48C900.65 324.352 900.896 324.172 901.066 323.94C901.242 323.704 901.329 323.424 901.329 323.102C901.329 322.643 901.137 322.283 900.754 322.023C900.37 321.758 899.842 321.625 899.17 321.625H896.301V324.665ZM909.151 331.256C908.459 331.256 907.832 331.125 907.268 330.865C906.705 330.6 906.258 330.219 905.926 329.722C905.595 329.22 905.429 328.614 905.429 327.903C905.429 327.278 905.552 326.772 905.798 326.384C906.045 325.991 906.374 325.683 906.786 325.46C907.197 325.238 907.652 325.072 908.149 324.963C908.651 324.849 909.155 324.759 909.662 324.693C910.325 324.608 910.862 324.544 911.274 324.501C911.691 324.454 911.994 324.376 912.183 324.267C912.377 324.158 912.474 323.969 912.474 323.699V323.642C912.474 322.941 912.283 322.397 911.899 322.009C911.52 321.62 910.945 321.426 910.173 321.426C909.373 321.426 908.746 321.601 908.291 321.952C907.837 322.302 907.517 322.676 907.332 323.074L905.741 322.506C906.026 321.843 906.404 321.327 906.878 320.957C907.356 320.583 907.877 320.323 908.44 320.176C909.009 320.025 909.567 319.949 910.116 319.949C910.467 319.949 910.869 319.991 911.324 320.077C911.783 320.157 912.226 320.325 912.652 320.581C913.083 320.837 913.44 321.223 913.724 321.739C914.009 322.255 914.151 322.946 914.151 323.812V331H912.474V329.523H912.389C912.276 329.759 912.086 330.013 911.821 330.283C911.556 330.553 911.203 330.782 910.763 330.972C910.322 331.161 909.785 331.256 909.151 331.256ZM909.406 329.75C910.069 329.75 910.628 329.62 911.082 329.359C911.542 329.099 911.887 328.763 912.119 328.351C912.356 327.939 912.474 327.506 912.474 327.051V325.517C912.403 325.602 912.247 325.68 912.006 325.751C911.769 325.818 911.494 325.877 911.182 325.929C910.874 325.976 910.573 326.019 910.28 326.057C909.991 326.09 909.757 326.118 909.577 326.142C909.141 326.199 908.734 326.291 908.355 326.419C907.981 326.542 907.678 326.729 907.446 326.98C907.219 327.226 907.105 327.562 907.105 327.989C907.105 328.571 907.321 329.011 907.751 329.31C908.187 329.603 908.739 329.75 909.406 329.75ZM915.725 321.653V320.091H924.589V321.653H921.01V331H919.333V321.653H915.725ZM931.042 331.227C929.99 331.227 929.084 330.995 928.321 330.531C927.564 330.062 926.979 329.409 926.567 328.571C926.16 327.728 925.956 326.748 925.956 325.631C925.956 324.513 926.16 323.528 926.567 322.676C926.979 321.819 927.552 321.152 928.286 320.673C929.025 320.19 929.886 319.949 930.871 319.949C931.439 319.949 932 320.044 932.554 320.233C933.108 320.422 933.613 320.73 934.067 321.156C934.522 321.578 934.884 322.136 935.154 322.832C935.424 323.528 935.559 324.385 935.559 325.403V326.114H927.15V324.665H933.854C933.854 324.049 933.731 323.5 933.485 323.017C933.243 322.534 932.898 322.153 932.448 321.874C932.003 321.594 931.477 321.455 930.871 321.455C930.203 321.455 929.626 321.62 929.138 321.952C928.655 322.278 928.283 322.705 928.023 323.23C927.763 323.756 927.632 324.319 927.632 324.92V325.886C927.632 326.71 927.775 327.409 928.059 327.982C928.347 328.55 928.748 328.983 929.259 329.281C929.77 329.575 930.364 329.722 931.042 329.722C931.482 329.722 931.88 329.66 932.235 329.537C932.595 329.409 932.905 329.22 933.165 328.969C933.426 328.713 933.627 328.396 933.769 328.017L935.388 328.472C935.218 329.021 934.931 329.504 934.529 329.92C934.126 330.332 933.629 330.654 933.037 330.886C932.445 331.114 931.78 331.227 931.042 331.227ZM937.142 331V329.438H937.54C937.867 329.438 938.139 329.374 938.357 329.246C938.575 329.113 938.75 328.884 938.882 328.557C939.02 328.225 939.124 327.766 939.195 327.179C939.271 326.587 939.325 325.834 939.358 324.92L939.557 320.091H946.83V331H945.154V321.653H941.148L940.978 325.545C940.94 326.44 940.859 327.229 940.736 327.911C940.618 328.588 940.435 329.156 940.189 329.615C939.948 330.074 939.626 330.42 939.223 330.652C938.821 330.884 938.317 331 937.711 331H937.142ZM956.468 331V321.625H953.57C952.917 321.625 952.403 321.777 952.029 322.08C951.655 322.383 951.468 322.799 951.468 323.33C951.468 323.85 951.636 324.26 951.972 324.558C952.313 324.857 952.779 325.006 953.371 325.006H956.894V326.568H953.371C952.632 326.568 951.996 326.438 951.461 326.178C950.926 325.917 950.514 325.545 950.225 325.062C949.936 324.575 949.792 323.997 949.792 323.33C949.792 322.657 949.943 322.08 950.246 321.597C950.549 321.114 950.982 320.742 951.546 320.482C952.114 320.221 952.789 320.091 953.57 320.091H958.059V331H956.468ZM949.195 331L952.292 325.574H954.11L951.013 331H949.195Z" fill="black"/>
<rect x="766.5" y="376.5" width="388" height="47" rx="9.5" fill="white" stroke="#868686"/>
<path d="M790.642 392.455V407H788.881V394.017H781.551V407H779.79V392.455H790.642ZM797.178 407.256C796.487 407.256 795.859 407.125 795.296 406.865C794.732 406.6 794.285 406.219 793.953 405.722C793.622 405.22 793.456 404.614 793.456 403.903C793.456 403.278 793.579 402.772 793.826 402.384C794.072 401.991 794.401 401.683 794.813 401.46C795.225 401.238 795.679 401.072 796.176 400.963C796.678 400.849 797.183 400.759 797.689 400.693C798.352 400.608 798.89 400.544 799.301 400.501C799.718 400.454 800.021 400.376 800.211 400.267C800.405 400.158 800.502 399.969 800.502 399.699V399.642C800.502 398.941 800.31 398.397 799.926 398.009C799.548 397.62 798.972 397.426 798.201 397.426C797.4 397.426 796.773 397.601 796.319 397.952C795.864 398.302 795.544 398.676 795.36 399.074L793.769 398.506C794.053 397.843 794.432 397.327 794.905 396.957C795.383 396.583 795.904 396.323 796.468 396.176C797.036 396.025 797.595 395.949 798.144 395.949C798.494 395.949 798.897 395.991 799.351 396.077C799.81 396.157 800.253 396.325 800.679 396.581C801.11 396.837 801.468 397.223 801.752 397.739C802.036 398.255 802.178 398.946 802.178 399.812V407H800.502V405.523H800.417C800.303 405.759 800.114 406.013 799.848 406.283C799.583 406.553 799.23 406.782 798.79 406.972C798.35 407.161 797.812 407.256 797.178 407.256ZM797.434 405.75C798.096 405.75 798.655 405.62 799.11 405.359C799.569 405.099 799.915 404.763 800.147 404.351C800.383 403.939 800.502 403.506 800.502 403.051V401.517C800.431 401.602 800.275 401.68 800.033 401.751C799.796 401.818 799.522 401.877 799.209 401.929C798.901 401.976 798.601 402.019 798.307 402.057C798.018 402.09 797.784 402.118 797.604 402.142C797.168 402.199 796.761 402.291 796.382 402.419C796.008 402.542 795.705 402.729 795.473 402.98C795.246 403.226 795.132 403.562 795.132 403.989C795.132 404.571 795.348 405.011 795.779 405.31C796.214 405.603 796.766 405.75 797.434 405.75ZM805.237 411.091V396.091H806.857V397.824H807.055C807.179 397.634 807.349 397.393 807.567 397.099C807.789 396.801 808.107 396.536 808.518 396.304C808.935 396.067 809.499 395.949 810.209 395.949C811.127 395.949 811.937 396.179 812.638 396.638C813.339 397.097 813.885 397.748 814.278 398.591C814.671 399.434 814.868 400.428 814.868 401.574C814.868 402.729 814.671 403.731 814.278 404.578C813.885 405.421 813.341 406.074 812.645 406.538C811.949 406.998 811.146 407.227 810.237 407.227C809.536 407.227 808.975 407.111 808.554 406.879C808.133 406.643 807.808 406.375 807.581 406.077C807.354 405.774 807.179 405.523 807.055 405.324H806.913V411.091H805.237ZM806.885 401.545C806.885 402.369 807.006 403.096 807.247 403.726C807.489 404.351 807.841 404.841 808.305 405.196C808.769 405.546 809.338 405.722 810.01 405.722C810.711 405.722 811.295 405.537 811.764 405.168C812.238 404.794 812.593 404.292 812.83 403.662C813.071 403.027 813.192 402.322 813.192 401.545C813.192 400.778 813.073 400.087 812.837 399.472C812.605 398.851 812.252 398.361 811.778 398.001C811.31 397.637 810.72 397.455 810.01 397.455C809.328 397.455 808.755 397.627 808.291 397.973C807.827 398.314 807.477 398.792 807.24 399.408C807.003 400.018 806.885 400.731 806.885 401.545ZM821.857 407.227C820.872 407.227 820.008 406.993 819.264 406.524C818.526 406.055 817.948 405.4 817.531 404.557C817.119 403.714 816.913 402.729 816.913 401.602C816.913 400.466 817.119 399.474 817.531 398.626C817.948 397.779 818.526 397.121 819.264 396.652C820.008 396.183 820.872 395.949 821.857 395.949C822.841 395.949 823.703 396.183 824.442 396.652C825.185 397.121 825.763 397.779 826.175 398.626C826.591 399.474 826.8 400.466 826.8 401.602C826.8 402.729 826.591 403.714 826.175 404.557C825.763 405.4 825.185 406.055 824.442 406.524C823.703 406.993 822.841 407.227 821.857 407.227ZM821.857 405.722C822.605 405.722 823.22 405.53 823.703 405.146C824.186 404.763 824.544 404.259 824.776 403.634C825.008 403.009 825.124 402.331 825.124 401.602C825.124 400.873 825.008 400.194 824.776 399.564C824.544 398.934 824.186 398.425 823.703 398.037C823.22 397.649 822.605 397.455 821.857 397.455C821.108 397.455 820.493 397.649 820.01 398.037C819.527 398.425 819.17 398.934 818.938 399.564C818.705 400.194 818.589 400.873 818.589 401.602C818.589 402.331 818.705 403.009 818.938 403.634C819.17 404.259 819.527 404.763 820.01 405.146C820.493 405.53 821.108 405.722 821.857 405.722ZM828.392 407V405.438H828.79C829.117 405.438 829.389 405.374 829.607 405.246C829.825 405.113 830 404.884 830.132 404.557C830.27 404.225 830.374 403.766 830.445 403.179C830.521 402.587 830.575 401.834 830.608 400.92L830.807 396.091H838.08V407H836.404V397.653H832.398L832.228 401.545C832.19 402.44 832.109 403.229 831.986 403.911C831.868 404.588 831.685 405.156 831.439 405.615C831.198 406.074 830.876 406.42 830.473 406.652C830.071 406.884 829.567 407 828.961 407H828.392ZM842.604 400.04H845.729C847.007 400.04 847.985 400.364 848.662 401.013C849.339 401.661 849.678 402.483 849.678 403.477C849.678 404.131 849.526 404.725 849.223 405.26C848.92 405.79 848.475 406.214 847.888 406.531C847.301 406.844 846.581 407 845.729 407H841.155V396.091H842.831V405.438H845.729C846.392 405.438 846.936 405.262 847.363 404.912C847.789 404.562 848.002 404.112 848.002 403.562C848.002 402.985 847.789 402.514 847.363 402.149C846.936 401.785 846.392 401.602 845.729 401.602H842.604V400.04Z" fill="black"/>
<rect x="766" y="492" width="389" height="48" rx="10" fill="#63D708"/>
<path d="M930.986 523V508.455H937.051C938.14 508.455 939.051 508.608 939.785 508.916C940.524 509.224 941.078 509.655 941.447 510.209C941.821 510.763 942.008 511.404 942.008 512.134C942.008 512.688 941.892 513.182 941.66 513.618C941.428 514.049 941.109 514.406 940.702 514.69C940.294 514.974 939.823 515.173 939.288 515.287V515.429C939.875 515.457 940.417 515.616 940.915 515.905C941.416 516.194 941.819 516.596 942.122 517.112C942.425 517.624 942.577 518.23 942.577 518.93C942.577 519.712 942.378 520.41 941.98 521.026C941.582 521.636 941.007 522.119 940.254 522.474C939.501 522.825 938.587 523 937.513 523H930.986ZM934.501 520.166H936.675C937.437 520.166 937.998 520.022 938.358 519.733C938.722 519.444 938.905 519.042 938.905 518.526C938.905 518.152 938.817 517.83 938.642 517.56C938.467 517.285 938.218 517.074 937.896 516.928C937.574 516.776 937.188 516.7 936.738 516.7H934.501V520.166ZM934.501 514.435H936.447C936.831 514.435 937.172 514.371 937.47 514.243C937.768 514.115 938 513.93 938.166 513.689C938.336 513.447 938.422 513.156 938.422 512.815C938.422 512.328 938.249 511.944 937.903 511.665C937.558 511.385 937.091 511.246 936.504 511.246H934.501V514.435ZM949.359 523.206C948.213 523.206 947.229 522.972 946.405 522.503C945.586 522.029 944.953 521.371 944.508 520.528C944.068 519.681 943.848 518.698 943.848 517.581C943.848 516.459 944.068 515.476 944.508 514.634C944.953 513.786 945.586 513.128 946.405 512.659C947.229 512.186 948.213 511.949 949.359 511.949C950.505 511.949 951.488 512.186 952.307 512.659C953.131 513.128 953.763 513.786 954.203 514.634C954.648 515.476 954.871 516.459 954.871 517.581C954.871 518.698 954.648 519.681 954.203 520.528C953.763 521.371 953.131 522.029 952.307 522.503C951.488 522.972 950.505 523.206 949.359 523.206ZM949.381 520.585C949.797 520.585 950.15 520.457 950.439 520.202C950.728 519.946 950.948 519.591 951.099 519.136C951.256 518.682 951.334 518.156 951.334 517.56C951.334 516.954 951.256 516.423 951.099 515.969C950.948 515.514 950.728 515.159 950.439 514.903C950.15 514.648 949.797 514.52 949.381 514.52C948.95 514.52 948.585 514.648 948.287 514.903C947.993 515.159 947.768 515.514 947.612 515.969C947.461 516.423 947.385 516.954 947.385 517.56C947.385 518.156 947.461 518.682 947.612 519.136C947.768 519.591 947.993 519.946 948.287 520.202C948.585 520.457 948.95 520.585 949.381 520.585ZM959.938 518.504L963.425 512.091H966.763V523H963.475V516.565L959.995 523H956.65V512.091H959.938V518.504ZM963.113 508.227H965.4C965.395 509.117 965.059 509.832 964.391 510.372C963.728 510.912 962.829 511.182 961.692 511.182C960.556 511.182 959.654 510.912 958.986 510.372C958.323 509.832 957.994 509.117 957.999 508.227H960.265C960.26 508.54 960.367 508.824 960.584 509.08C960.802 509.335 961.171 509.463 961.692 509.463C962.199 509.463 962.561 509.338 962.779 509.087C962.997 508.836 963.108 508.549 963.113 508.227ZM968.01 514.747V512.091H978.237V514.747H974.75V523H971.454V514.747H968.01ZM983.18 518.504L986.667 512.091H990.006V523H986.717V516.565L983.237 523H979.892V512.091H983.18V518.504Z" fill="white"/>
<rect width="1920" height="95" fill="#63D708"/>
<path d="M64.4489 29.0909V64H56.1307V35.8409H43.1761V64H34.858V29.0909H64.4489ZM78.3665 64.4432C76.696 64.4432 75.2131 64.1648 73.9176 63.608C72.6335 63.0398 71.6165 62.1875 70.8665 61.0511C70.1278 59.9034 69.7585 58.4659 69.7585 56.7386C69.7585 55.2841 70.0142 54.0568 70.5256 53.0568C71.0369 52.0568 71.7415 51.2443 72.6392 50.6193C73.5369 49.9943 74.571 49.5227 75.7415 49.2045C76.9119 48.875 78.1619 48.6534 79.4915 48.5398C80.9801 48.4034 82.179 48.2614 83.0881 48.1136C83.9972 47.9545 84.6563 47.733 85.0653 47.4489C85.4858 47.1534 85.696 46.7386 85.696 46.2045V46.1193C85.696 45.2443 85.3949 44.5682 84.7926 44.0909C84.1903 43.6136 83.3778 43.375 82.3551 43.375C81.2528 43.375 80.3665 43.6136 79.696 44.0909C79.0256 44.5682 78.5994 45.2273 78.4176 46.0682L70.7301 45.7955C70.9574 44.2045 71.5426 42.7841 72.4858 41.5341C73.4403 40.2727 74.7472 39.2841 76.4062 38.5682C78.0767 37.8409 80.0824 37.4773 82.4233 37.4773C84.0938 37.4773 85.6335 37.6761 87.0426 38.0739C88.4517 38.4602 89.679 39.0284 90.7244 39.7784C91.7699 40.517 92.5767 41.4261 93.1449 42.5057C93.7244 43.5852 94.0142 44.8182 94.0142 46.2045V64H86.1733V60.3523H85.9688C85.5028 61.2386 84.9063 61.9886 84.179 62.6023C83.4631 63.2159 82.6165 63.6761 81.6392 63.983C80.6733 64.2898 79.5824 64.4432 78.3665 64.4432ZM80.9403 58.9886C81.8381 58.9886 82.6449 58.8068 83.3608 58.4432C84.0881 58.0795 84.6676 57.5795 85.0994 56.9432C85.5313 56.2955 85.7472 55.5455 85.7472 54.6932V52.2045C85.5085 52.3295 85.2188 52.4432 84.8778 52.5455C84.5483 52.6477 84.1847 52.7443 83.7869 52.8352C83.3892 52.9261 82.9801 53.0057 82.5597 53.0739C82.1392 53.142 81.7358 53.2045 81.3494 53.2614C80.5653 53.3864 79.8949 53.5795 79.3381 53.8409C78.7926 54.1023 78.3722 54.4432 78.0767 54.8636C77.7926 55.2727 77.6506 55.7614 77.6506 56.3295C77.6506 57.1932 77.9574 57.8523 78.571 58.3068C79.196 58.7614 79.9858 58.9886 80.9403 58.9886ZM117.571 47.6534V54.0114H104.139V47.6534H117.571ZM107.003 37.8182V64H99.1108V37.8182H107.003ZM122.599 37.8182V64H114.759V37.8182H122.599ZM139.896 64.4943C137.158 64.4943 134.794 63.9545 132.805 62.875C130.828 61.7841 129.305 60.233 128.237 58.2216C127.18 56.1989 126.652 53.7955 126.652 51.0114C126.652 48.3068 127.186 45.9432 128.254 43.9205C129.322 41.8864 130.828 40.3068 132.771 39.1818C134.714 38.0455 137.004 37.4773 139.641 37.4773C141.504 37.4773 143.209 37.767 144.754 38.3466C146.3 38.9261 147.635 39.7841 148.76 40.9205C149.885 42.0568 150.76 43.4602 151.385 45.1307C152.01 46.7898 152.322 48.6932 152.322 50.8409V52.9205H129.567V48.0795H144.567C144.555 47.1932 144.345 46.4034 143.936 45.7102C143.527 45.017 142.964 44.4773 142.249 44.0909C141.544 43.6932 140.732 43.4943 139.811 43.4943C138.879 43.4943 138.044 43.7045 137.305 44.125C136.567 44.5341 135.982 45.0966 135.55 45.8125C135.118 46.517 134.891 47.3182 134.868 48.2159V53.142C134.868 54.2102 135.078 55.1477 135.499 55.9545C135.919 56.75 136.516 57.3693 137.288 57.8125C138.061 58.2557 138.982 58.4773 140.05 58.4773C140.788 58.4773 141.459 58.375 142.061 58.1705C142.663 57.9659 143.18 57.6648 143.612 57.267C144.044 56.8693 144.368 56.3807 144.584 55.8011L152.237 56.0227C151.919 57.7386 151.22 59.233 150.141 60.5057C149.072 61.767 147.669 62.75 145.93 63.4545C144.192 64.1477 142.18 64.4943 139.896 64.4943ZM155.301 64L155.25 57.5739H156.085C156.653 57.5739 157.148 57.4261 157.568 57.1307C157.989 56.8352 158.341 56.3636 158.625 55.7159C158.909 55.0568 159.136 54.2102 159.307 53.1761C159.477 52.142 159.585 50.8864 159.631 49.4091L160.057 37.8182H180.784V64H172.892V44.1932H167.472L167.062 51.7273C166.96 53.9432 166.67 55.8352 166.193 57.4034C165.727 58.9602 165.091 60.2216 164.284 61.1875C163.489 62.1534 162.545 62.8636 161.455 63.3182C160.364 63.7727 159.131 64 157.756 64H155.301ZM190.768 45.3864H198.712C202.314 45.3864 205.138 46.233 207.183 47.9261C209.229 49.608 210.257 51.892 210.268 54.7784C210.257 56.6534 209.786 58.2841 208.854 59.6705C207.933 61.0455 206.609 62.1136 204.882 62.875C203.166 63.625 201.109 64 198.712 64H185.876V37.8182H193.768V57.625H198.712C199.803 57.625 200.7 57.358 201.405 56.8239C202.109 56.2898 202.467 55.6023 202.479 54.7614C202.467 53.875 202.109 53.1534 201.405 52.5966C200.7 52.0398 199.803 51.7614 198.712 51.7614H190.768V45.3864ZM232.351 64.4432C230.68 64.4432 229.197 64.1648 227.902 63.608C226.618 63.0398 225.601 62.1875 224.851 61.0511C224.112 59.9034 223.743 58.4659 223.743 56.7386C223.743 55.2841 223.999 54.0568 224.51 53.0568C225.021 52.0568 225.726 51.2443 226.624 50.6193C227.521 49.9943 228.555 49.5227 229.726 49.2045C230.896 48.875 232.146 48.6534 233.476 48.5398C234.964 48.4034 236.163 48.2614 237.072 48.1136C237.982 47.9545 238.641 47.733 239.05 47.4489C239.47 47.1534 239.68 46.7386 239.68 46.2045V46.1193C239.68 45.2443 239.379 44.5682 238.777 44.0909C238.175 43.6136 237.362 43.375 236.339 43.375C235.237 43.375 234.351 43.6136 233.68 44.0909C233.01 44.5682 232.584 45.2273 232.402 46.0682L224.714 45.7955C224.942 44.2045 225.527 42.7841 226.47 41.5341C227.425 40.2727 228.732 39.2841 230.391 38.5682C232.061 37.8409 234.067 37.4773 236.408 37.4773C238.078 37.4773 239.618 37.6761 241.027 38.0739C242.436 38.4602 243.663 39.0284 244.709 39.7784C245.754 40.517 246.561 41.4261 247.129 42.5057C247.709 43.5852 247.999 44.8182 247.999 46.2045V64H240.158V60.3523H239.953C239.487 61.2386 238.891 61.9886 238.163 62.6023C237.447 63.2159 236.601 63.6761 235.624 63.983C234.658 64.2898 233.567 64.4432 232.351 64.4432ZM234.925 58.9886C235.822 58.9886 236.629 58.8068 237.345 58.4432C238.072 58.0795 238.652 57.5795 239.084 56.9432C239.516 56.2955 239.732 55.5455 239.732 54.6932V52.2045C239.493 52.3295 239.203 52.4432 238.862 52.5455C238.533 52.6477 238.169 52.7443 237.771 52.8352C237.374 52.9261 236.964 53.0057 236.544 53.0739C236.124 53.142 235.72 53.2045 235.334 53.2614C234.55 53.3864 233.879 53.5795 233.322 53.8409C232.777 54.1023 232.357 54.4432 232.061 54.8636C231.777 55.2727 231.635 55.7614 231.635 56.3295C231.635 57.1932 231.942 57.8523 232.555 58.3068C233.18 58.7614 233.97 58.9886 234.925 58.9886ZM251.288 71.7216V57.5739H253.249C253.839 57.2784 254.311 56.7102 254.663 55.8693C255.016 55.017 255.294 54.0227 255.499 52.8864C255.714 51.7386 255.874 50.5455 255.976 49.3068C256.089 48.0568 256.192 46.8807 256.283 45.7784L256.896 37.8182H278.101V57.5739H282.192V71.7216H274.283V64H259.402V71.7216H251.288ZM261.362 57.5739H270.328V44.0227H263.851L263.714 45.7784C263.555 48.5966 263.305 50.9602 262.964 52.8693C262.624 54.7784 262.089 56.3466 261.362 57.5739ZM301.901 55.1023L308.31 37.8182H314.412L304.577 64H299.224L289.645 37.8182H295.73L301.901 55.1023ZM293.94 37.8182V64H286.048V37.8182H293.94ZM310.338 64V37.8182H318.128V64H310.338ZM331.065 53.2102L339.435 37.8182H347.446V64H339.554V48.5568L331.202 64H323.173V37.8182H331.065V53.2102ZM371.212 47.6534V54.0114H357.78V47.6534H371.212ZM360.643 37.8182V64H352.751V37.8182H360.643ZM376.24 37.8182V64H368.399V37.8182H376.24ZM389.19 53.2102L397.56 37.8182H405.571V64H397.679V48.5568L389.327 64H381.298V37.8182H389.19V53.2102ZM423.098 64.4943C420.337 64.4943 417.967 63.9261 415.99 62.7898C414.024 61.6534 412.513 60.0739 411.456 58.0511C410.399 56.017 409.871 53.6648 409.871 50.9943C409.871 48.3125 410.399 45.9602 411.456 43.9375C412.524 41.9034 414.041 40.3182 416.007 39.1818C417.984 38.0455 420.342 37.4773 423.081 37.4773C425.501 37.4773 427.609 37.9148 429.405 38.7898C431.212 39.6648 432.621 40.9034 433.632 42.5057C434.655 44.0966 435.195 45.9659 435.251 48.1136H427.462C427.303 46.7727 426.848 45.7216 426.098 44.9602C425.359 44.1989 424.393 43.8182 423.2 43.8182C422.234 43.8182 421.388 44.0909 420.661 44.6364C419.933 45.1705 419.365 45.9659 418.956 47.0227C418.558 48.0682 418.359 49.3636 418.359 50.9091C418.359 52.4545 418.558 53.7614 418.956 54.8295C419.365 55.8864 419.933 56.6875 420.661 57.233C421.388 57.767 422.234 58.0341 423.2 58.0341C423.973 58.0341 424.655 57.8693 425.246 57.5398C425.848 57.2102 426.342 56.7273 426.729 56.0909C427.115 55.4432 427.359 54.6591 427.462 53.7386H435.251C435.172 55.8977 434.632 57.7841 433.632 59.3977C432.643 61.0114 431.251 62.267 429.456 63.1648C427.672 64.0511 425.553 64.4943 423.098 64.4943ZM437.859 44.1932V37.8182H462.405V44.1932H454.036V64H446.126V44.1932H437.859ZM466.376 73.8182V37.8182H474.626V42.3011H474.882C475.223 41.5057 475.706 40.7386 476.331 40C476.967 39.2614 477.774 38.6591 478.751 38.1932C479.74 37.7159 480.922 37.4773 482.297 37.4773C484.115 37.4773 485.814 37.9545 487.393 38.9091C488.984 39.8636 490.268 41.3352 491.246 43.3239C492.223 45.3125 492.712 47.8466 492.712 50.9261C492.712 53.892 492.24 56.375 491.297 58.375C490.365 60.375 489.104 61.875 487.513 62.875C485.933 63.875 484.178 64.375 482.246 64.375C480.928 64.375 479.786 64.1591 478.82 63.7273C477.854 63.2955 477.041 62.7273 476.382 62.0227C475.734 61.3182 475.234 60.5625 474.882 59.7557H474.712V73.8182H466.376ZM474.541 50.9091C474.541 52.3182 474.729 53.5455 475.104 54.5909C475.49 55.6364 476.041 56.4489 476.757 57.0284C477.484 57.5966 478.354 57.8807 479.365 57.8807C480.388 57.8807 481.257 57.5966 481.973 57.0284C482.689 56.4489 483.229 55.6364 483.592 54.5909C483.967 53.5455 484.155 52.3182 484.155 50.9091C484.155 49.5 483.967 48.2784 483.592 47.2443C483.229 46.2102 482.689 45.4091 481.973 44.8409C481.268 44.2727 480.399 43.9886 479.365 43.9886C478.342 43.9886 477.473 44.267 476.757 44.8239C476.041 45.3807 475.49 46.1761 475.104 47.2102C474.729 48.2443 474.541 49.4773 474.541 50.9091ZM504.46 64.4432C502.79 64.4432 501.307 64.1648 500.011 63.608C498.727 63.0398 497.71 62.1875 496.96 61.0511C496.222 59.9034 495.852 58.4659 495.852 56.7386C495.852 55.2841 496.108 54.0568 496.619 53.0568C497.131 52.0568 497.835 51.2443 498.733 50.6193C499.631 49.9943 500.665 49.5227 501.835 49.2045C503.006 48.875 504.256 48.6534 505.585 48.5398C507.074 48.4034 508.273 48.2614 509.182 48.1136C510.091 47.9545 510.75 47.733 511.159 47.4489C511.58 47.1534 511.79 46.7386 511.79 46.2045V46.1193C511.79 45.2443 511.489 44.5682 510.886 44.0909C510.284 43.6136 509.472 43.375 508.449 43.375C507.347 43.375 506.46 43.6136 505.79 44.0909C505.119 44.5682 504.693 45.2273 504.511 46.0682L496.824 45.7955C497.051 44.2045 497.636 42.7841 498.58 41.5341C499.534 40.2727 500.841 39.2841 502.5 38.5682C504.17 37.8409 506.176 37.4773 508.517 37.4773C510.188 37.4773 511.727 37.6761 513.136 38.0739C514.545 38.4602 515.773 39.0284 516.818 39.7784C517.864 40.517 518.67 41.4261 519.239 42.5057C519.818 43.5852 520.108 44.8182 520.108 46.2045V64H512.267V60.3523H512.062C511.597 61.2386 511 61.9886 510.273 62.6023C509.557 63.2159 508.71 63.6761 507.733 63.983C506.767 64.2898 505.676 64.4432 504.46 64.4432ZM507.034 58.9886C507.932 58.9886 508.739 58.8068 509.455 58.4432C510.182 58.0795 510.761 57.5795 511.193 56.9432C511.625 56.2955 511.841 55.5455 511.841 54.6932V52.2045C511.602 52.3295 511.313 52.4432 510.972 52.5455C510.642 52.6477 510.278 52.7443 509.881 52.8352C509.483 52.9261 509.074 53.0057 508.653 53.0739C508.233 53.142 507.83 53.2045 507.443 53.2614C506.659 53.3864 505.989 53.5795 505.432 53.8409C504.886 54.1023 504.466 54.4432 504.17 54.8636C503.886 55.2727 503.744 55.7614 503.744 56.3295C503.744 57.1932 504.051 57.8523 504.665 58.3068C505.29 58.7614 506.08 58.9886 507.034 58.9886ZM522.891 44.1932V37.8182H547.436V44.1932H539.067V64H531.158V44.1932H522.891ZM562.832 64.4943C560.082 64.4943 557.719 63.9318 555.741 62.8068C553.776 61.6705 552.259 60.0909 551.19 58.0682C550.134 56.0341 549.605 53.6761 549.605 50.9943C549.605 48.3011 550.134 45.9432 551.19 43.9205C552.259 41.8864 553.776 40.3068 555.741 39.1818C557.719 38.0455 560.082 37.4773 562.832 37.4773C565.582 37.4773 567.94 38.0455 569.906 39.1818C571.884 40.3068 573.401 41.8864 574.457 43.9205C575.526 45.9432 576.06 48.3011 576.06 50.9943C576.06 53.6761 575.526 56.0341 574.457 58.0682C573.401 60.0909 571.884 61.6705 569.906 62.8068C567.94 63.9318 565.582 64.4943 562.832 64.4943ZM562.884 58.2045C563.884 58.2045 564.73 57.8977 565.423 57.2841C566.116 56.6705 566.645 55.8182 567.009 54.7273C567.384 53.6364 567.571 52.375 567.571 50.9432C567.571 49.4886 567.384 48.2159 567.009 47.125C566.645 46.0341 566.116 45.1818 565.423 44.5682C564.73 43.9545 563.884 43.6477 562.884 43.6477C561.849 43.6477 560.974 43.9545 560.259 44.5682C559.554 45.1818 559.014 46.0341 558.639 47.125C558.276 48.2159 558.094 49.4886 558.094 50.9432C558.094 52.375 558.276 53.6364 558.639 54.7273C559.014 55.8182 559.554 56.6705 560.259 57.2841C560.974 57.8977 561.849 58.2045 562.884 58.2045ZM580.33 73.8182V37.8182H588.58V42.3011H588.835C589.176 41.5057 589.659 40.7386 590.284 40C590.92 39.2614 591.727 38.6591 592.705 38.1932C593.693 37.7159 594.875 37.4773 596.25 37.4773C598.068 37.4773 599.767 37.9545 601.347 38.9091C602.938 39.8636 604.222 41.3352 605.199 43.3239C606.176 45.3125 606.665 47.8466 606.665 50.9261C606.665 53.892 606.193 56.375 605.25 58.375C604.318 60.375 603.057 61.875 601.466 62.875C599.886 63.875 598.131 64.375 596.199 64.375C594.881 64.375 593.739 64.1591 592.773 63.7273C591.807 63.2955 590.994 62.7273 590.335 62.0227C589.688 61.3182 589.188 60.5625 588.835 59.7557H588.665V73.8182H580.33ZM588.494 50.9091C588.494 52.3182 588.682 53.5455 589.057 54.5909C589.443 55.6364 589.994 56.4489 590.71 57.0284C591.438 57.5966 592.307 57.8807 593.318 57.8807C594.341 57.8807 595.21 57.5966 595.926 57.0284C596.642 56.4489 597.182 55.6364 597.545 54.5909C597.92 53.5455 598.108 52.3182 598.108 50.9091C598.108 49.5 597.92 48.2784 597.545 47.2443C597.182 46.2102 596.642 45.4091 595.926 44.8409C595.222 44.2727 594.352 43.9886 593.318 43.9886C592.295 43.9886 591.426 44.267 590.71 44.8239C589.994 45.3807 589.443 46.1761 589.057 47.2102C588.682 48.2443 588.494 49.4773 588.494 50.9091ZM618.413 64.4432C616.743 64.4432 615.26 64.1648 613.964 63.608C612.68 63.0398 611.663 62.1875 610.913 61.0511C610.175 59.9034 609.805 58.4659 609.805 56.7386C609.805 55.2841 610.061 54.0568 610.572 53.0568C611.084 52.0568 611.788 51.2443 612.686 50.6193C613.584 49.9943 614.618 49.5227 615.788 49.2045C616.959 48.875 618.209 48.6534 619.538 48.5398C621.027 48.4034 622.226 48.2614 623.135 48.1136C624.044 47.9545 624.703 47.733 625.112 47.4489C625.533 47.1534 625.743 46.7386 625.743 46.2045V46.1193C625.743 45.2443 625.442 44.5682 624.839 44.0909C624.237 43.6136 623.425 43.375 622.402 43.375C621.3 43.375 620.413 43.6136 619.743 44.0909C619.072 44.5682 618.646 45.2273 618.464 46.0682L610.777 45.7955C611.004 44.2045 611.589 42.7841 612.533 41.5341C613.487 40.2727 614.794 39.2841 616.453 38.5682C618.124 37.8409 620.129 37.4773 622.47 37.4773C624.141 37.4773 625.68 37.6761 627.089 38.0739C628.499 38.4602 629.726 39.0284 630.771 39.7784C631.817 40.517 632.624 41.4261 633.192 42.5057C633.771 43.5852 634.061 44.8182 634.061 46.2045V64H626.22V60.3523H626.016C625.55 61.2386 624.953 61.9886 624.226 62.6023C623.51 63.2159 622.663 63.6761 621.686 63.983C620.72 64.2898 619.629 64.4432 618.413 64.4432ZM620.987 58.9886C621.885 58.9886 622.692 58.8068 623.408 58.4432C624.135 58.0795 624.714 57.5795 625.146 56.9432C625.578 56.2955 625.794 55.5455 625.794 54.6932V52.2045C625.555 52.3295 625.266 52.4432 624.925 52.5455C624.595 52.6477 624.232 52.7443 623.834 52.8352C623.436 52.9261 623.027 53.0057 622.607 53.0739C622.186 53.142 621.783 53.2045 621.396 53.2614C620.612 53.3864 619.942 53.5795 619.385 53.8409C618.839 54.1023 618.419 54.4432 618.124 54.8636C617.839 55.2727 617.697 55.7614 617.697 56.3295C617.697 57.1932 618.004 57.8523 618.618 58.3068C619.243 58.7614 620.033 58.9886 620.987 58.9886Z" fill="white"/>
<rect x="0.5" y="0.5" width="1919" height="1079" stroke="black"/>
</g>
<defs>
<clipPath id="clip0_2_2">
<rect width="1920" height="1080" fill="white"/>
</clipPath>
</defs>
</svg>
